{"title":"Eurovision.Song.Contest.2012.Grand.Final.x264.720p.DTS.5.1-aB","uid":7306156,"size":10815152687,"categoryP":"video","categoryS":"hd___tv_shows","magnet":"?xt=urn:btih:cb674a065331ef5a858cef8015824002ab9b7c96&amp;dn=Eurovision.Song.Contest.2012.Grand.Final.x264.720p.DTS.5.1-aB&amp;tr=udp%3A%2F%2Ftracker.openbittorrent.com%3A80&amp;tr=udp%3A%2F%2Fopen.demonii.com%3A1337&amp;tr=udp%3A%2F%2Ftracker.coppersurfer.tk%3A6969&amp;tr=udp%3A%2F%2Fexodus.desync.com%3A6969","seeders":1,"leechers":0,"uploader":"Kopane","files":1,"time":1338202334,"description":"+++++++++++++++++++++++++++++++++++++++++++++++++++++++++++++++++++++++++++++++\nThe video proposed here does not contain any logos and off-screen commentaries.\n+++++++++++++++++++++++++++++++++++++++++++++++++++++++++++++++++++++++++++++++\n\nBrief media specs:\nVideo: 1280x720 (16:9) at 50.000 fps, ~6112 kbps\nAudio: DTS 5.1 (48 kHz / 1510 kbps) \nAudio codec: DTS\nVideo codec: X.264\nFile format: MKV\n\n\nSource file (grabbed from the feed) that have been used for encoding:\nVIDEO SOURCE: MPEG2 4:2:2, 1080/50i, 35 Mbps\nAUDIO SOURCE: Dolby E 5.1, 24-bit\n\n\nMedia info:\n\nGeneral\n\nFormat                                   : Matroska\nFormat version                           : Version 2\nFile size                                : 10.1 GiB\nDuration                                 : 3h 9mn\nOverall bit rate                         : 7 612 Kbps\nEncoded date                             : UTC 2012-05-27 09:59:10\nWriting application                      : mkvmerge v5.5.0 ('Healer') built on Apr  6 2012 21:43:24\nWriting library                          : libebml v1.2.3 + libmatroska v1.3.0\n\nVideo\n\nID                                       : 1\nFormat                                   : AVC\nFormat/Info                              : Advanced Video Codec\nFormat profile                           : &lt;a class=&quot;__cf_email__&quot; href=&quot;/cdn-cgi/l/email-protection&quot; data-cfemail=&quot;327a5b555a727e061c03&quot;&gt;[email&amp;#160;protected]&lt;/a&gt;&lt;script cf-hash='f9e31' type=&quot;text/javascript&quot;&gt;\n/* &lt;![CDATA[ */!function(){try{var t=&quot;currentScript&quot;in document?document.currentScript:function(){for(var t=document.getElementsByTagName(&quot;script&quot;),e=t.length;e--;)if(t[e].getAttribute(&quot;cf-hash&quot;))return t[e]}();if(t&amp;&amp;t.previousSibling){var e,r,n,i,c=t.previousSibling,a=c.getAttribute(&quot;data-cfemail&quot;);if(a){for(e=&quot;&quot;,r=parseInt(a.substr(0,2),16),n=2;a.length-n;n+=2)i=parseInt(a.substr(n,2),16)^r,e+=String.fromCharCode(i);e=document.createTextNode(e),c.parentNode.replaceChild(e,c)}}}catch(u){}}();/* ]]&gt; */&lt;/script&gt;\nFormat settings, CABAC                   : Yes\nFormat settings, ReFrames                : 5 frames\nCodec ID                                 : V_MPEG4/ISO/AVC\nDuration                                 : 3h 9mn\nBit rate                                 : 5 951 Kbps\nWidth                                    : 1 280 pixels\nHeight                                   : 720 pixels\nDisplay aspect ratio                     : 16:9\nFrame rate                               : 50.000 fps\nColor space                              : YUV\nChroma subsampling                       : 4:2:0\nBit depth                                : 8 bits\nScan type                                : Progressive\nBits/(Pixel*Frame)                       : 0.129\nStream size                              : 7.87 GiB (78%)\nWriting library                          : x264 core 120 r2164 da19765\nLanguage                                 : English\nDefault                                  : Yes\nForced                                   : No\n\nAudio\n\nID                                       : 2\nFormat                                   : DTS\nFormat/Info                              : Digital Theater Systems\nCodec ID                                 : A_DTS\nDuration                                 : 3h 9mn\nBit rate mode                            : Constant\nBit rate                                 : 1 510 Kbps\nChannel(s)                               : 6 channels\nChannel positions                        : Front: L C R, Side: L R, LFE\nSampling rate                            : 48.0 KHz\nBit depth                                : 24 bits\nCompression mode                         : Lossy\nDelay relative to video                  : 7ms\nStream size                              : 2.00 GiB (20%)\nLanguage                                 : English\nDefault                                  : Yes\nForced                                   : No","torrent":{"xt":"urn:btih:cb674a065331ef5a858cef8015824002ab9b7c96","amp;dn":"Eurovision.Song.Contest.2012.Grand.Final.x264.720p.DTS.5.1-aB","amp;tr":["udp%3A%2F%2Ftracker.openbittorrent.com%3A80","udp%3A%2F%2Fopen.demonii.com%3A1337","udp%3A%2F%2Ftracker.coppersurfer.tk%3A6969","udp%3A%2F%2Fexodus.desync.com%3A6969"],"infoHash":"cb674a065331ef5a858cef8015824002ab9b7c96","infoHashBuffer":{"type":"Buffer","data":[203,103,74,6,83,49,239,90,133,140,239,128,21,130,64,2,171,155,124,150]},"announce":[],"urlList":[]}}